# This file uses centimeters as units for non-parametric coordinates.

mtllib Room1(primitivesBuild).mtl
g default
v 2.076490 0.777922 -1.009548
v 2.071017 0.762106 -1.009548
v 2.066079 0.716206 -1.009548
v 2.062160 0.644715 -1.009548
v 2.059644 0.554632 -1.009548
v 2.058778 0.454773 -1.009548
v 2.059644 0.354914 -1.009548
v 2.062160 0.264830 -1.009548
v 2.066079 0.193339 -1.009548
v 2.071017 0.147439 -1.009548
v 2.076490 0.131623 -1.009548
v 2.076490 0.777922 0.073739
v 2.071017 0.762106 0.073739
v 2.066079 0.716206 0.073739
v 2.062160 0.644715 0.073739
v 2.059644 0.554632 0.073739
v 2.058778 0.454773 0.073739
v 2.059644 0.354914 0.073739
v 2.062160 0.264830 0.073739
v 2.066079 0.193339 0.073739
v 2.071017 0.147439 0.073739
v 2.076490 0.131623 0.073739
v 2.076490 0.454773 -1.009548
v 2.076490 0.454773 0.073739
v -1.443737 0.022928 1.540524
v 1.490472 0.022928 1.540524
v -0.616606 0.022928 -2.309296
v 0.668203 0.022928 -2.309296
v 2.075811 1.936617 -2.309297
v 0.668204 1.936617 -2.309298
v -0.616605 3.016854 -2.309297
v -0.616605 1.936616 -2.309297
v 0.668204 3.016854 -2.309297
v 2.075811 0.022928 -2.309297
v -2.056640 3.016854 -2.309296
v -1.443737 3.016854 1.540525
v 0.668204 1.936617 -2.621479
v 0.668204 3.016854 -2.621479
v 2.075810 0.022928 -1.015677
v -2.056640 3.016854 1.540525
v 2.075812 1.936617 -2.621479
v 2.075812 3.016854 -2.621479
v 2.075811 0.022928 0.087759
v 2.075811 3.016854 -2.309297
v -2.056640 0.022928 1.540524
v 1.490472 3.016853 1.540525
v 2.075811 0.022928 1.540524
v -1.443736 0.022928 2.150689
v 1.490471 0.022928 2.150689
v -1.443736 3.016854 2.150689
v 2.075812 3.016854 -1.015678
v -0.636683 0.022928 2.986425
v 0.668203 0.022928 2.986425
v 2.076033 1.021633 -0.888879
v 2.076033 1.021633 -0.156486
v 0.668203 3.016854 2.986425
v 0.834278 0.905785 2.817387
v -1.273572 0.905785 2.325130
v -1.273573 2.590822 2.325130
v 2.075812 3.016854 0.087759
v -0.636683 3.016854 2.986425
v 2.076032 2.541263 -0.888879
v 1.490472 3.016854 2.150690
v 0.834278 2.590822 2.817387
v 2.075812 3.016854 1.540525
v 1.339616 2.590822 2.300546
v -0.767895 0.905785 2.849776
v -1.212222 0.905785 2.389431
v 2.076032 2.541263 -0.156486
v 0.381402 0.905785 2.986426
v -0.340865 0.905785 2.986426
v -0.338171 0.905785 2.986425
v 0.383723 0.905785 2.986425
v -0.767895 2.590822 2.849776
v -0.340865 2.590822 2.986426
v -0.338171 2.590822 2.986425
v 1.339616 0.905785 2.300546
v 0.834278 0.905785 2.817387
v 1.339616 0.905785 2.300546
v 0.381402 2.590822 2.986426
v 0.383723 2.590822 2.986425
v 0.834278 2.590822 2.817387
v 1.339616 2.590822 2.300546
v -0.767895 2.584628 2.849776
v -0.616606 3.016854 -2.621479
v -2.056640 3.016854 -2.621479
v -2.056640 0.022928 -2.621478
v -0.616607 0.022928 -2.621478
v -2.056640 0.022928 -2.309297
v -2.056640 0.022928 -0.079944
v -2.056640 2.187518 -0.079944
v -2.056640 2.187518 -1.035502
v -2.056640 0.022928 -1.035502
v -2.056640 0.022928 -1.035502
v -2.056640 0.022928 -1.035502
v -2.056640 0.022928 -0.079944
v -2.056640 0.022928 -0.079944
v -0.596061 1.066303 -2.133607
v 0.636384 1.066303 -2.133607
v -0.596061 1.084143 -2.133607
v 0.636384 1.084143 -2.133607
v -0.596061 1.084143 -2.306935
v 0.636384 1.084143 -2.306935
v -0.596061 1.066303 -2.306935
v 0.636384 1.066303 -2.306935
v -0.489398 0.022928 -2.222893
v -0.381652 0.022928 -2.222893
v -0.489398 1.067520 -2.222893
v -0.381652 1.067520 -2.222893
v -0.489398 1.067520 -2.305878
v -0.381652 1.067520 -2.305878
v -0.489398 0.022928 -2.305878
v -0.381652 0.022928 -2.305878
v 0.442835 0.022928 -2.222893
v 0.550582 0.022928 -2.222893
v 0.442835 1.067520 -2.222893
v 0.550582 1.067520 -2.222893
v 0.442835 1.067520 -2.305878
v 0.550582 1.067520 -2.305878
v 0.442835 0.022928 -2.305878
v 0.550582 0.022928 -2.305878
v -2.056640 0.022928 -2.308203
vt 0.037042 0.683391
vt 0.102870 0.683391
vt 0.102870 0.702415
vt 0.037042 0.702415
vt 0.037042 0.788192
vt 0.102870 0.788192
vt 0.102870 0.807216
vt 0.037042 0.807216
vt 0.235144 0.186766
vt 0.028890 0.186766
vt 0.028890 0.165260
vt 0.160726 0.165260
vt 0.047480 0.593359
vt 0.121893 0.702415
vt 0.121893 0.788192
vt 0.018018 0.702415
vt 0.018018 0.788192
vt 0.256278 0.187499
vt 0.255521 0.284109
vt 0.234664 0.284571
vt 0.007479 0.186872
vt 0.029366 0.285532
vt 0.007959 0.285638
vt 0.122430 0.780169
vt 0.122431 0.682504
vt 0.255209 0.682504
vt 0.255209 0.780169
vt 0.047480 0.682504
vt 0.255209 0.912947
vt 0.344965 0.780169
vt 0.344965 0.987898
vt 0.255209 0.987898
vt 0.421526 0.780169
vt 0.421526 0.987898
vt 0.404579 0.954900
vt 0.404579 0.849463
vt 0.353763 0.849463
vt 0.353763 0.954900
vt 0.522324 0.987898
vt 0.522324 0.780169
vt 0.511158 0.286293
vt 0.508941 0.485082
vt 0.401442 0.483909
vt 0.403030 0.340338
vt 0.339593 0.339823
vt 0.338346 0.483368
vt 0.522324 0.493445
vt 0.522324 0.535971
vt 0.522324 0.739556
vt 0.255210 0.493445
vt 0.343590 0.493445
vt 0.343590 0.493445
vt 0.409890 0.493445
vt 0.409890 0.493445
vt 0.592292 0.287158
vt 0.590106 0.486034
vt 0.549609 0.485557
vt 0.551803 0.286735
vt 0.669495 0.287776
vt 0.667260 0.487026
vt 0.612844 0.427647
vt 0.655325 0.428135
vt 0.656582 0.316405
vt 0.656587 0.315993
vt 0.608178 0.315625
vt 0.606942 0.427572
vt 0.875443 0.289911
vt 0.873030 0.489765
vt 0.832288 0.489259
vt 0.834718 0.289426
vt 0.754042 0.488184
vt 0.756456 0.288604
vt 0.820187 0.317694
vt 0.771924 0.317192
vt 0.770559 0.429524
vt 0.818817 0.430158
vt 0.513836 0.050538
vt 0.511607 0.245543
vt 0.257321 0.102133
vt 0.258448 0.008610
vt 0.344419 0.009630
vt 0.417752 0.010498
vt 0.514302 0.011638
vt 0.552136 0.245988
vt 0.554363 0.051007
vt 0.609250 0.106278
vt 0.608260 0.192983
vt 0.564660 0.535971
vt 0.564659 0.739556
vt 0.622646 0.591967
vt 0.622645 0.682504
vt 0.687615 0.428503
vt 0.688880 0.316344
vt 0.735650 0.429109
vt 0.737010 0.316787
vt 0.912115 0.490239
vt 0.914515 0.290378
vt 0.253957 0.482654
vt 0.234764 0.305981
vt 0.029467 0.307014
vt 0.235144 0.165259
vt 0.122431 0.593359
vt 0.255210 0.593360
vt 0.597031 0.808238
vt 0.597029 0.809273
vt 0.538906 0.809158
vt 0.538794 0.808275
vt 0.596920 0.811748
vt 0.538986 0.811626
vt 0.596884 0.815586
vt 0.538976 0.815454
vt 0.596919 0.820411
vt 0.538885 0.820267
vt 0.596947 0.825745
vt 0.538805 0.825592
vt 0.596844 0.831067
vt 0.538873 0.830913
vt 0.596740 0.835873
vt 0.538955 0.835722
vt 0.596722 0.839694
vt 0.538957 0.839546
vt 0.596795 0.842159
vt 0.538872 0.842012
vt 0.596904 0.843039
vt 0.538759 0.842892
vt 0.137657 0.572015
vt 0.124875 0.572015
vt 0.124875 0.570699
vt 0.137657 0.570699
vt 0.124875 0.478496
vt 0.137657 0.478496
vt 0.137657 0.479812
vt 0.124875 0.479812
vt 0.229171 0.500264
vt 0.229171 0.506384
vt 0.152138 0.506384
vt 0.152138 0.500264
vt 0.229172 0.486198
vt 0.229172 0.492318
vt 0.152137 0.492318
vt 0.152138 0.486198
vt 0.229359 0.558545
vt 0.229359 0.564665
vt 0.152325 0.564664
vt 0.152325 0.558545
vt 0.229359 0.544479
vt 0.229359 0.550599
vt 0.152325 0.550599
vt 0.152325 0.544479
vt 0.151755 0.479812
vt 0.151755 0.570699
vt 0.138973 0.570699
vt 0.138973 0.479812
vt 0.598026 0.825759
vt 0.537707 0.825591
vn -0.945013 0.327034 0.000000
vn -0.986069 0.166339 0.000000
vn -0.986069 0.166339 0.000000
vn -0.945013 0.327034 0.000000
vn -0.997166 0.075228 0.000000
vn -0.997166 0.075228 0.000000
vn -0.999208 0.039792 0.000000
vn -0.999208 0.039792 0.000000
vn -0.999841 0.017807 0.000000
vn -0.999841 0.017807 0.000000
vn -1.000000 0.000000 0.000000
vn -1.000000 0.000000 0.000000
vn -0.999842 -0.017807 0.000000
vn -0.999842 -0.017807 0.000000
vn -0.999208 -0.039792 0.000000
vn -0.999208 -0.039792 0.000000
vn -0.997166 -0.075228 0.000000
vn -0.997166 -0.075228 0.000000
vn -0.986069 -0.166339 0.000000
vn -0.986069 -0.166339 0.000000
vn -0.945012 -0.327035 0.000000
vn -0.945012 -0.327035 0.000000
vn 0.000001 0.000000 -1.000000
vn 0.000000 0.000000 -1.000000
vn -0.000001 0.000000 -1.000000
vn 0.000016 0.000000 -1.000000
vn -0.000008 0.000000 -1.000000
vn 0.000000 0.000000 -1.000000
vn -0.000016 0.000000 -1.000000
vn -0.000001 0.000000 -1.000000
vn 0.000000 0.000000 -1.000000
vn 0.000000 0.000000 -1.000000
vn 0.000000 0.000000 -1.000000
vn 0.000000 0.000000 1.000000
vn 0.000000 0.000000 1.000000
vn 0.000000 0.000000 1.000000
vn 0.000002 0.000000 1.000000
vn 0.000000 0.000000 1.000000
vn 0.000000 0.000000 1.000000
vn 0.000000 0.000000 1.000000
vn 0.000000 0.000000 1.000000
vn 0.000001 0.000000 1.000000
vn 0.000000 0.000000 1.000000
vn 0.000000 0.000000 1.000000
vn 0.000000 0.000000 1.000000
vn 0.000000 0.000000 1.000000
vn 0.000000 0.000000 1.000000
vn 0.000000 0.000000 1.000000
vn 0.000000 0.000000 1.000000
vn 0.000001 -0.000001 1.000000
vn 0.000000 0.000000 1.000000
vn 0.000000 0.000000 1.000000
vn 0.000001 -0.000001 1.000000
vn 0.000000 1.000000 -0.000000
vn 0.000000 1.000000 -0.000000
vn 0.000000 1.000000 -0.000000
vn 0.000000 1.000000 -0.000000
vn 0.000000 1.000000 -0.000000
vn 0.000000 1.000000 -0.000000
vn 0.000000 1.000000 -0.000000
vn 0.000000 1.000000 -0.000000
vn 0.000000 1.000000 -0.000000
vn 0.000000 1.000000 -0.000000
vn 0.000000 1.000000 -0.000000
vn 0.000000 1.000000 -0.000000
vn 0.000000 1.000000 -0.000000
vn 0.000000 1.000000 -0.000000
vn 1.000000 -0.000000 0.000001
vn 1.000000 -0.000000 0.000001
vn 1.000000 -0.000000 0.000001
vn 1.000000 -0.000000 0.000001
vn 0.000000 1.000000 0.000000
vn 0.000000 1.000000 0.000000
vn 0.000000 1.000000 0.000000
vn 0.000000 1.000000 0.000000
vn 0.000000 -1.000000 0.000001
vn 0.000000 -1.000000 0.000001
vn 0.000000 -1.000000 0.000001
vn 0.000000 -1.000000 0.000001
vn 0.000000 0.000000 1.000000
vn 0.000000 0.000000 1.000000
vn 0.000000 0.000000 1.000000
vn 0.000000 0.000000 1.000000
vn 0.000000 0.000000 -1.000000
vn 0.000000 0.000000 -1.000000
vn 0.000000 0.000000 -1.000000
vn 0.000000 0.000000 -1.000000
vn -0.000000 -1.000000 -0.000000
vn -0.000000 -1.000000 -0.000000
vn -0.000000 -1.000000 -0.000000
vn -0.000000 -1.000000 -0.000000
vn -0.000000 -1.000000 -0.000000
vn -0.000000 -1.000000 -0.000000
vn -0.000000 -1.000000 -0.000000
vn -0.000000 -1.000000 -0.000000
vn -0.000000 -1.000000 -0.000000
vn -0.000000 -1.000000 -0.000000
vn -0.000000 1.000000 -0.000000
vn -0.000000 1.000000 -0.000000
vn -0.000000 1.000000 -0.000000
vn -0.000000 1.000000 -0.000000
vn 1.000000 0.000000 -0.000001
vn 1.000000 0.000000 -0.000001
vn 1.000000 0.000000 -0.000001
vn 1.000000 0.000000 -0.000001
vn -1.000000 -0.000000 -0.000001
vn -1.000000 -0.000000 -0.000001
vn -1.000000 -0.000000 -0.000001
vn -1.000000 -0.000000 -0.000001
vn -0.000000 -1.000000 0.000001
vn -0.000000 -1.000000 0.000001
vn -0.000000 -1.000000 0.000001
vn -0.000000 -1.000000 0.000001
vn -0.000000 1.000000 0.000000
vn -0.000000 1.000000 0.000000
vn -0.000000 1.000000 0.000000
vn -0.000000 1.000000 0.000000
vn -0.712827 0.000000 -0.701340
vn -0.712827 0.000000 -0.701340
vn -0.712827 0.000000 -0.701340
vn -0.712827 0.000000 -0.701340
vn -0.712827 0.000000 -0.701340
vn -0.712827 0.000000 -0.701340
vn -0.712827 0.000000 -0.701340
vn -0.712827 0.000000 -0.701340
vn -1.000000 0.000000 -0.000000
vn -1.000000 0.000000 -0.000000
vn -1.000000 0.000000 -0.000000
vn -1.000000 0.000000 -0.000000
vn -1.000000 0.000000 -0.000000
vn 0.000000 -1.000000 -0.000001
vn 0.000000 -1.000000 -0.000001
vn 0.000000 -1.000000 -0.000001
vn 0.000000 -1.000000 -0.000001
vn 0.000000 -0.988919 -0.148456
vn 0.000000 -0.000000 -0.000000
vn 0.000000 -0.988919 -0.148456
vn 0.000000 -0.000000 -0.000000
vn -1.000000 0.000000 0.000000
vn -1.000000 0.000000 0.000000
vn -1.000000 0.000000 0.000000
vn -1.000000 0.000000 0.000000
vn -0.000105 0.000000 -1.000000
vn -0.000105 0.000000 -1.000000
vn -0.000105 0.000000 -1.000000
vn -0.000105 0.000000 -1.000000
vn 0.000000 0.000000 0.000000
vn 0.000000 0.000000 0.000000
vn 0.000000 0.000000 0.000000
vn 0.000000 0.000000 0.000000
vn -0.000000 0.000000 -1.000000
vn -0.000000 0.000000 -1.000000
vn -0.000000 0.000000 -1.000000
vn -0.000000 0.000000 -1.000000
vn -1.000000 0.000000 -0.000001
vn -1.000000 0.000000 -0.000001
vn -1.000000 0.000000 -0.000001
vn -1.000000 0.000000 -0.000001
vn 0.000122 0.000000 1.000000
vn 0.000122 0.000000 1.000000
vn 0.000122 0.000000 1.000000
vn 0.000122 0.000000 1.000000
vn 0.000000 0.000000 0.000000
vn 0.000000 0.000000 0.000000
vn 0.000000 0.000000 0.000000
vn 0.000000 0.000000 0.000000
vn 0.000000 0.000000 -0.000000
vn 0.000000 0.000000 -1.000000
vn 0.000000 0.000000 -1.000000
vn 0.000000 0.000000 -0.000000
vn 0.000000 0.000000 0.000000
vn 0.000000 0.824221 0.566268
vn 0.000000 0.000000 0.000000
vn 0.000000 0.824221 0.566268
vn 0.000000 0.000000 0.000000
vn 0.000000 0.000000 0.000000
vn 0.000000 0.000000 0.000000
vn 0.000000 0.000000 0.000000
vn -1.000000 0.000000 0.000000
vn -1.000000 0.000000 0.000000
vn -1.000000 0.000000 0.000000
vn -1.000000 0.000000 0.000000
vn -1.000000 0.000000 0.000000
vn -1.000000 0.000000 0.000000
vn -1.000000 0.000000 0.000000
vn -1.000000 0.000000 0.000000
vn 0.719343 0.000000 -0.694655
vn 0.719343 0.000000 -0.694655
vn 0.719343 0.000000 -0.694655
vn 0.719343 0.000000 -0.694655
vn 0.719343 0.000000 -0.694655
vn 0.719343 0.000000 -0.694655
vn 0.719343 0.000000 -0.694655
vn 0.719343 0.000000 -0.694655
vn 0.719343 0.000000 -0.694655
vn 0.719343 0.000000 -0.694655
vn 0.000000 0.000000 -1.000000
vn 0.000000 0.000000 -1.000000
vn 0.000000 0.000000 -1.000000
vn 0.000000 0.000000 -1.000000
vn 0.000000 0.000000 -1.000000
vn 0.000000 0.000000 -1.000000
vn 0.000000 0.000000 -1.000000
vn 0.000000 0.000000 -1.000000
vn 0.000000 -1.000000 0.000001
vn 0.000000 -1.000000 0.000001
vn 0.000000 -1.000000 0.000001
vn 0.000000 -1.000000 0.000001
vn 0.000000 0.000001 1.000000
vn 0.000000 0.000001 1.000000
vn 0.000000 1.000000 0.000000
vn 0.000000 1.000000 0.000000
vn 0.000000 1.000000 0.000000
vn 0.000000 1.000000 0.000000
vn -1.000000 0.000000 0.000004
vn -1.000000 0.000000 0.000004
vn -1.000000 0.000000 0.000004
vn -1.000000 0.000000 0.000004
vn -1.000000 0.000000 0.000004
vn 0.000000 0.000000 1.000000
vn 0.000000 0.000000 1.000000
vn 0.000000 0.000000 1.000000
vn 0.000000 0.000000 1.000000
vn 1.000000 0.000000 0.000000
vn 1.000000 0.000000 0.000000
vn 1.000000 0.000000 0.000000
vn 1.000000 0.000000 0.000000
vn 0.000000 0.000000 1.000000
vn 0.000000 0.000000 1.000000
vn 0.000000 0.000000 1.000000
vn 0.000000 0.000000 1.000000
vn 0.000000 1.000000 0.000000
vn 0.000000 1.000000 0.000000
vn 0.000000 1.000000 0.000000
vn 0.000000 1.000000 0.000000
vn 0.000000 -1.000000 0.000000
vn 0.000000 -1.000000 0.000000
vn 0.000000 -1.000000 0.000000
vn 0.000000 -1.000000 0.000000
vn 1.000000 0.000000 0.000000
vn 1.000000 0.000000 0.000000
vn 1.000000 0.000000 0.000000
vn 1.000000 0.000000 0.000000
vn -1.000000 0.000000 0.000000
vn -1.000000 0.000000 0.000000
vn -1.000000 0.000000 0.000000
vn -1.000000 0.000000 0.000000
vn 0.000000 0.000000 1.000000
vn 0.000000 0.000000 1.000000
vn 0.000000 0.000000 1.000000
vn 0.000000 0.000000 1.000000
vn 0.000000 1.000000 0.000000
vn 0.000000 1.000000 0.000000
vn 0.000000 1.000000 0.000000
vn 0.000000 1.000000 0.000000
vn 0.000000 0.000000 -1.000000
vn 0.000000 0.000000 -1.000000
vn 0.000000 0.000000 -1.000000
vn 0.000000 0.000000 -1.000000
vn 1.000000 0.000000 0.000000
vn 1.000000 0.000000 0.000000
vn 1.000000 0.000000 0.000000
vn 1.000000 0.000000 0.000000
vn -1.000000 0.000000 0.000000
vn -1.000000 0.000000 0.000000
vn -1.000000 0.000000 0.000000
vn -1.000000 0.000000 0.000000
vn 0.000000 0.000000 1.000000
vn 0.000000 0.000000 1.000000
vn 0.000000 0.000000 1.000000
vn 0.000000 0.000000 1.000000
vn 1.000000 0.000000 0.000000
vn 1.000000 0.000000 0.000000
vn 1.000000 0.000000 0.000000
vn 1.000000 0.000000 0.000000
vn -1.000000 0.000000 0.000000
vn -1.000000 0.000000 0.000000
vn -1.000000 0.000000 0.000000
vn -1.000000 0.000000 0.000000
vn 1.000000 0.000000 0.000000
vn 1.000000 0.000000 0.000000
vn 1.000000 0.000000 0.000000
vn 1.000000 0.000000 0.000000
vn 1.000000 0.000000 0.000000
vn 1.000000 0.000000 0.000000
s 1
g pCylinder4
usemtl initialShadingGroup
f 1/104/1 2/105/2 13/106/3 12/107/4
f 2/105/2 3/108/5 14/109/6 13/106/3
f 3/108/5 4/110/7 15/111/8 14/109/6
f 4/110/7 5/112/9 16/113/10 15/111/8
f 5/112/9 6/114/11 17/115/12 16/113/10
f 6/114/11 7/116/13 18/117/14 17/115/12
f 7/116/13 8/118/15 19/119/16 18/117/14
f 8/118/15 9/120/17 20/121/18 19/119/16
f 9/120/17 10/122/19 21/123/20 20/121/18
f 10/122/19 11/124/21 22/125/22 21/123/20
s 2
f 3/108/23 2/105/24 23/154/25
f 4/110/26 3/108/23 23/154/25
f 5/112/27 4/110/26 23/154/25
f 6/114/28 5/112/27 23/154/25
f 7/116/29 6/114/28 23/154/25
f 8/118/30 7/116/29 23/154/25
f 9/120/31 8/118/30 23/154/25
f 10/122/32 9/120/31 23/154/25
f 11/124/33 10/122/32 23/154/25
s 3
f 12/107/34 13/106/35 24/155/36
f 13/106/35 14/109/37 24/155/36
f 14/109/37 15/111/38 24/155/36
f 15/111/38 16/113/39 24/155/36
f 16/113/39 17/115/40 24/155/36
f 17/115/40 18/117/41 24/155/36
f 18/117/41 19/119/42 24/155/36
f 19/119/42 20/121/43 24/155/36
f 20/121/43 21/123/44 24/155/36
f 21/123/44 22/125/45 24/155/36
s off
f 29/24/46 30/25/47 28/26/48 34/27/49
s 4
f 31/13/50 32/102/51 30/25/52 33/28/53
s off
f 45/47/54 25/48/55 26/49/56 47/40/57 43/33/58 39/30/59 34/27/60 28/26/61 27/103/62 89/50/63 94/51/64 95/52/65 96/53/66 97/54/67
f 33/1/68 30/2/69 37/3/70 38/4/71
f 41/6/72 37/3/73 30/14/74 29/15/75
f 33/16/76 38/4/77 42/5/78 44/17/79
f 38/4/80 37/3/81 41/6/82 42/5/83
f 36/58/84 25/57/85 45/42/86 40/41/87
f 46/77/88 36/78/89 40/41/90 35/19/91 31/18/92 33/79/93 44/80/94 51/81/95 60/82/96 65/83/97
f 25/48/98 48/88/99 49/89/100 26/49/101
f 50/55/102 48/56/103 25/57/104 36/58/105
f 42/5/106 41/6/107 29/7/108 44/8/109
f 50/84/110 36/78/111 46/77/112 63/85/113
f 52/90/114 53/91/115 49/89/116 48/88/117
f 53/71/118 56/72/119 63/70/120 49/69/121 66/73/122 64/74/123 57/75/124 77/76/125
f 29/29/126 34/27/127 39/30/128 51/31/129 44/32/130
f 56/86/131 61/87/132 50/84/133 63/85/134
f 70//135 71//136 72//137 73//138
f 65/39/139 60/34/140 43/33/141 47/40/142
f 71//143 75//144 76//145 72//146
f 77//147 57//148 78//149 79//150
f 47/96/151 26/68/152 46/67/153 65/97/154
f 46/67/155 26/68/156 49/69/157 63/70/158
f 80//159 70//160 73//161 81//162
f 57//163 64//164 82//165 78//166
f 66//167 77//168 79//169 83//170
f 75//171 80//172 81//173 76//174
f 64//175 66//176 83//177 82//178
f 39/30/179 43/33/180 60/34/181 51/31/182 69/35/183 55/36/184 54/37/185 62/38/186
f 61/59/187 52/60/188 48/56/189 50/55/190 68/61/191 67/62/192 84/63/193 74/64/194 59/65/195 58/66/196
f 56/72/197 53/71/198 52/60/199 61/59/200 71/92/201 70/94/202 80/95/203 75/93/204
f 85/9/205 31/18/206 35/19/207 86/20/208
s 4
f 28/26/209 30/25/52 32/102/51 27/103/210
s off
f 27/21/211 88/10/212 87/22/213 89/23/214
f 85/9/215 88/10/216 27/11/217 32/12/218 31/101/219
f 86/20/220 87/22/221 88/10/222 85/9/223
s 5
f 35/99/224 122/100/225 87/22/226 86/20/227
s off
f 98/153/228 99/152/229 101/129/230 100/132/231
f 100/132/232 101/129/233 103/128/234 102/133/235
f 104/150/236 105/151/237 99/152/238 98/153/239
f 99/126/240 105/127/241 103/128/242 101/129/243
f 104/130/244 98/131/245 100/132/246 102/133/247
f 106/139/248 107/134/249 109/137/250 108/140/251
f 108//252 109//253 111//254 110//255
f 110//256 111//257 113//258 112//259
f 107/134/260 113/135/261 111/136/262 109/137/263
f 112/138/264 106/139/265 108/140/266 110/141/267
f 114/147/268 115/142/269 117/145/270 116/148/271
f 115/142/272 121/143/273 119/144/274 117/145/275
f 120/146/276 114/147/277 116/148/278 118/149/279
s 5
f 40/41/280 45/42/281 90/43/282 91/44/283 92/45/284 93/46/285 122/98/225 35/19/224
